<?xml version="1.0" encoding="utf-8"?><svg xmlns="http://www.w3.org/2000/svg" xmlns:xlink="http://www.w3.org/1999/xlink"><symbol viewBox="0 0 252.063 477.175" id="arrow-next" xmlns="http://www.w3.org/2000/svg"><path d="M248.175 229.075l-225.1-225.1c-5.3-5.3-13.8-5.3-19.1 0-5.3 5.3-5.3 13.8 0 19.1l215.5 215.5-215.5 215.5c-5.3 5.3-5.3 13.8 0 19.1 2.6 2.6 6.1 4 9.5 4 3.4 0 6.9-1.3 9.5-4l225.1-225.1c5.3-5.2 5.3-13.8.1-19z"/></symbol><symbol viewBox="0 0 252.15 477.175" id="arrow-prev" xmlns="http://www.w3.org/2000/svg"><path d="M32.675 238.575l215.5-215.5c5.3-5.3 5.3-13.8 0-19.1-5.3-5.3-13.8-5.3-19.1 0l-225.1 225.1c-5.3 5.3-5.3 13.8 0 19.1l225.1 225c2.6 2.6 6.1 4 9.5 4 3.4 0 6.9-1.3 9.5-4 5.3-5.3 5.3-13.8 0-19.1z"/></symbol><symbol viewBox="0 0 475.2 475.2" id="cancel" xmlns="http://www.w3.org/2000/svg"><path d="M405.6 69.6C360.7 24.7 301.1 0 237.6 0s-123.1 24.7-168 69.6S0 174.1 0 237.6s24.7 123.1 69.6 168 104.5 69.6 168 69.6 123.1-24.7 168-69.6 69.6-104.5 69.6-168-24.7-123.1-69.6-168zm-19.1 316.9c-39.8 39.8-92.7 61.7-148.9 61.7s-109.1-21.9-148.9-61.7c-82.1-82.1-82.1-215.7 0-297.8C128.5 48.9 181.4 27 237.6 27s109.1 21.9 148.9 61.7c82.1 82.1 82.1 215.7 0 297.8z"/><path d="M342.3 132.9c-5.3-5.3-13.8-5.3-19.1 0l-85.6 85.6-85.6-85.6c-5.3-5.3-13.8-5.3-19.1 0-5.3 5.3-5.3 13.8 0 19.1l85.6 85.6-85.6 85.6c-5.3 5.3-5.3 13.8 0 19.1 2.6 2.6 6.1 4 9.5 4s6.9-1.3 9.5-4l85.6-85.6 85.6 85.6c2.6 2.6 6.1 4 9.5 4 3.5 0 6.9-1.3 9.5-4 5.3-5.3 5.3-13.8 0-19.1l-85.4-85.6 85.6-85.6c5.3-5.3 5.3-13.8 0-19.1z"/></symbol><symbol viewBox="0 0 363 363" id="discuss-issue" xmlns="http://www.w3.org/2000/svg"><path d="M277.73 94.123c0 10.997-8.006 17.685-13.852 22.593-2.214 1.859-6.335 5.251-6.324 6.518.04 4.97-3.956 8.939-8.927 8.939h-.075c-4.936 0-8.958-3.847-8.998-8.792-.079-9.747 7.034-15.584 12.75-20.383 4.485-3.766 7.426-6.416 7.426-8.841 0-4.909-3.994-8.903-8.903-8.903-4.911 0-8.906 3.994-8.906 8.903 0 4.971-4.029 9-9 9s-9-4.029-9-9c0-14.834 12.069-26.903 26.904-26.903 14.836-.001 26.905 12.034 26.905 26.869zm-28.929 46.358c-4.971 0-8.801 4.029-8.801 9v.069c0 4.971 3.831 8.966 8.801 8.966s9-4.064 9-9.035-4.029-9-9-9zM67.392 203.174c-4.971 0-9 4.029-9 9s4.029 9 9 9h.75c4.971 0 9-4.029 9-9s-4.029-9-9-9h-.75zm31.279 0c-4.971 0-9 4.029-9 9s4.029 9 9 9h.749c4.971 0 9-4.029 9-9s-4.029-9-9-9h-.749zM363 59.425v101.301c0 23.985-19.232 43.448-43.217 43.448H203.066c-2.282 0-4.161-.013-5.733-.046-1.647-.034-3.501-.047-4.224.033-.753.5-2.599 2.191-4.378 3.83-.705.649-1.503 1.363-2.364 2.149l-33.022 30.098c-2.634 2.403-6.531 3.025-9.793 1.587-3.262-1.439-5.552-4.669-5.552-8.234v-95.417H43.72c-14.062 0-25.72 11.523-25.72 25.583v101.301c0 14.061 11.659 25.116 25.72 25.116h130.374c2.245 0 4.345 1.031 6.003 2.545L207 317.523v-85.539c0-4.971 4.029-9 9-9s9 4.029 9 9v105.938c0 3.565-2.04 6.747-5.303 8.186-1.167.515-2.339.718-3.566.718-2.204 0-4.378-.905-6.069-2.449l-39.457-36.204H43.72c-23.986 0-43.72-19.13-43.72-43.116v-101.3c0-23.985 19.734-43.583 43.72-43.583H138V59.425c0-23.986 19.885-43.251 43.871-43.251h137.913c23.984 0 43.216 19.265 43.216 43.251zm-18 0c0-14.061-11.157-25.251-25.217-25.251H181.871C167.81 34.174 156 45.364 156 59.425v153.767l18.095-16.353c.838-.765 1.777-1.465 2.462-2.097 8.263-7.614 10.377-8.831 21.155-8.609 1.47.031 3.221.042 5.354.042h116.717c14.06 0 25.217-11.388 25.217-25.448V59.425z"/></symbol><symbol viewBox="0 0 512 512" id="dribbble" xmlns="http://www.w3.org/2000/svg"><path d="M392.426 114.992c15.664-17.457 24.797-35.734 28-54.496C376.133 23.406 319.156 0 257 0c-32.094 0-62.7 6.21-91.012 17.078 47.41 47.5 87.059 103.742 118.07 164.453 45.696-16.523 83.782-39.129 108.368-66.539zm22.324 20.039c-27.52 30.672-68.426 55.617-117.297 73.746 6.074 13.32 11.656 26.918 16.91 40.692C339.461 244.07 365.473 241 392 241c41.762 0 82.332 7.086 119.742 20.11.035-1.715.258-3.383.258-5.11 0-66.035-25.445-126.094-66.773-171.43-6.098 17.57-16.22 34.575-30.477 50.461zM5.848 202.113C37.734 207.75 73.063 211 107 211c52.61 0 103.145-7.469 148.184-20.297-31.036-59.629-70.934-114.508-118.555-160.402C71.82 65.156 21.816 128.227 5.848 202.113zm503.308 89.883C472.97 278.375 433.141 271 392 271c-23.063 0-45.71 2.418-67.555 6.832 22.176 66.504 35.008 138.387 37.2 211.453 78.015-35.293 135.043-109.633 147.511-197.289zM0 256c0 78.89 38.027 150.512 94.473 197.32 5.98-39.785 23.918-78.925 53.132-111.683 34.75-38.961 82.973-68.137 137.583-84.79-5.083-13.109-10.633-25.96-16.493-38.632C219.898 232.687 164.938 241 107 241c-35.445 0-72.332-3.387-105.77-9.262C.473 239.734 0 247.813 0 256zm0 0"/><path d="M170.004 361.602c-29.512 33.093-45.5 71.906-47.55 111.613C161.565 497.64 207.585 512 257 512c25.98 0 51.047-3.953 74.684-11.207-1.149-74.688-13.688-148.125-36.485-215.719-49.902 14.965-93.797 41.32-125.195 76.528zm0 0"/></symbol><symbol viewBox="0 0 200.722 430.112" id="fb" xmlns="http://www.w3.org/2000/svg"><path d="M43.385 83.299v59.218H0v72.412h43.385v215.183h89.122V214.935h59.805s5.601-34.721 8.316-72.685h-67.784V92.739c0-7.4 9.717-17.354 19.321-17.354h48.557V0h-66.021C41.182-.005 43.385 72.479 43.385 83.299z"/></symbol><symbol viewBox="0 0 491.858 377.471" id="google-plus" xmlns="http://www.w3.org/2000/svg"><path d="M377.472 167.763H201.319v58.718H308.79c-16.032 51.048-63.714 88.077-120.055 88.077-69.492 0-125.823-56.335-125.823-125.824 0-69.492 56.333-125.823 125.823-125.823 34.994 0 66.645 14.289 89.452 37.346l42.622-46.328C286.769 20.574 240.159 0 188.735 0 84.5-.001 0 84.499 0 188.734c0 104.235 84.5 188.737 188.736 188.737 91.307 0 171.248-64.844 188.737-150.989v-58.718zm78.355-36.131h-30.886v36.031H388.91v30.883h36.031v36.032h30.886v-36.032h36.031v-30.883h-36.031z"/></symbol><symbol viewBox="0 0 512.001 512.001" id="instagram" xmlns="http://www.w3.org/2000/svg"><path d="M373.406 0H138.594C62.172 0 0 62.172 0 138.594V373.41C0 449.828 62.172 512 138.594 512H373.41C449.828 512 512 449.828 512 373.41V138.594C512 62.172 449.828 0 373.406 0zm108.578 373.41c0 59.867-48.707 108.574-108.578 108.574H138.594c-59.871 0-108.578-48.707-108.578-108.574V138.594c0-59.871 48.707-108.578 108.578-108.578H373.41c59.867 0 108.574 48.707 108.574 108.578zm0 0"/><path d="M256 116.004c-77.195 0-139.996 62.8-139.996 139.996S178.804 395.996 256 395.996 395.996 333.196 395.996 256 333.196 116.004 256 116.004zm0 249.976c-60.64 0-109.98-49.335-109.98-109.98 0-60.64 49.34-109.98 109.98-109.98 60.645 0 109.98 49.34 109.98 109.98 0 60.645-49.335 109.98-109.98 109.98zM399.344 66.285c-22.813 0-41.367 18.559-41.367 41.367 0 22.813 18.554 41.371 41.367 41.371s41.37-18.558 41.37-41.37-18.558-41.368-41.37-41.368zm0 52.719c-6.258 0-11.352-5.094-11.352-11.352 0-6.261 5.094-11.351 11.352-11.351 6.261 0 11.355 5.09 11.355 11.351 0 6.258-5.094 11.352-11.355 11.352zm0 0"/></symbol><symbol viewBox="0 0 310 309.318" id="linkedin" xmlns="http://www.w3.org/2000/svg"><path d="M72.16 99.389H9.927a5 5 0 0 0-5 5v199.928a5 5 0 0 0 5 5H72.16a5 5 0 0 0 5-5V104.389a5 5 0 0 0-5-5zM41.066 0C18.422 0 0 18.402 0 41.021 0 63.65 18.422 82.059 41.066 82.059c22.626 0 41.033-18.41 41.033-41.038C82.1 18.402 63.692 0 41.066 0zm189.388 94.42c-24.995 0-43.472 10.745-54.679 22.954v-12.985a5 5 0 0 0-5-5h-59.599a5 5 0 0 0-5 5v199.928a5 5 0 0 0 5 5h62.097a5 5 0 0 0 5-5v-98.918c0-33.333 9.054-46.319 32.29-46.319 25.306 0 27.317 20.818 27.317 48.034v97.204a5 5 0 0 0 5 5H305a5 5 0 0 0 5-5V194.654c0-49.565-9.451-100.234-79.546-100.234z"/></symbol><symbol viewBox="0 0 511.626 401.998" id="list" xmlns="http://www.w3.org/2000/svg"><path d="M118.771 146.185H27.406c-7.611 0-14.084 2.664-19.414 7.994C2.663 159.506 0 165.977 0 173.593v54.823c0 7.61 2.663 14.078 7.992 19.406 5.33 5.329 11.803 7.994 19.414 7.994h91.365c7.611 0 14.084-2.665 19.414-7.994 5.33-5.328 7.992-11.796 7.992-19.406v-54.823c0-7.616-2.662-14.087-7.992-19.414-5.33-5.327-11.803-7.994-19.414-7.994zm0-146.185H27.406C19.795 0 13.322 2.663 7.992 7.993 2.663 13.323 0 19.796 0 27.407v54.821c0 7.616 2.663 14.091 7.992 19.417 5.33 5.327 11.803 7.994 19.414 7.994h91.365c7.611 0 14.084-2.667 19.414-7.994 5.33-5.327 7.992-11.798 7.992-19.414v-54.82c0-7.611-2.662-14.084-7.992-19.417C132.855 2.666 126.382 0 118.771 0zm0 292.363H27.406c-7.611 0-14.084 2.662-19.414 7.994C2.663 305.688 0 312.16 0 319.771v54.826c0 7.61 2.663 14.086 7.992 19.41 5.33 5.332 11.803 7.991 19.414 7.991h91.365c7.611 0 14.084-2.663 19.414-7.991 5.33-5.324 7.992-11.8 7.992-19.41v-54.826c0-7.611-2.662-14.083-7.992-19.411-5.33-5.328-11.803-7.997-19.414-7.997zm365.444-146.178H210.131c-7.614 0-14.084 2.664-19.414 7.994-5.33 5.33-7.992 11.798-7.992 19.414v54.823c0 7.61 2.662 14.078 7.992 19.406 5.327 5.329 11.8 7.994 19.414 7.994h274.091c7.61 0 14.085-2.665 19.41-7.994 5.332-5.328 7.994-11.796 7.994-19.406v-54.823c0-7.616-2.662-14.087-7.997-19.414-5.329-5.33-11.796-7.994-19.414-7.994zm0 146.178H210.131c-7.614 0-14.084 2.662-19.414 7.994-5.33 5.331-7.992 11.8-7.992 19.41v54.823c0 7.611 2.662 14.089 7.992 19.417 5.327 5.328 11.8 7.987 19.414 7.987h274.091c7.61 0 14.085-2.662 19.41-7.987 5.332-5.331 7.994-11.806 7.994-19.417v-54.823c0-7.61-2.662-14.085-7.997-19.41-5.329-5.325-11.796-7.994-19.414-7.994zM503.629 7.997C498.3 2.67 491.832.004 484.215.004H210.131c-7.614 0-14.084 2.663-19.414 7.993-5.33 5.33-7.992 11.803-7.992 19.414v54.821c0 7.616 2.662 14.083 7.992 19.414 5.327 5.327 11.8 7.994 19.414 7.994h274.091c7.61 0 14.078-2.667 19.41-7.994 5.332-5.327 7.994-11.798 7.994-19.414V27.411c0-7.612-2.662-14.084-7.997-19.414z"/></symbol><symbol viewBox="-35 1 511 511.999" id="manager" xmlns="http://www.w3.org/2000/svg"><path d="M271.05 180c5.52 0 10-4.48 10-10s-4.48-10-10-10c-5.53 0-10 4.48-10 10s4.47 10 10 10zm-100 0c5.52 0 10-4.48 10-10s-4.48-10-10-10c-5.53 0-10 4.48-10 10s4.47 10 10 10zm23.266 68.734c8.395 3.957 17.391 5.965 26.73 5.965 9.138 0 17.958-1.926 26.22-5.722 5.02-2.309 7.214-8.247 4.91-13.266-2.309-5.016-8.246-7.215-13.266-4.906a42.502 42.502 0 0 1-17.863 3.894c-6.371 0-12.496-1.363-18.203-4.054-4.996-2.356-10.957-.215-13.309 4.78a10 10 0 0 0 4.781 13.31zm0 0"/><path d="M441.59 405.77c0-54.989-62.625-98.114-116.305-100.157l-27.387-24.605C331.254 256.672 351.5 217.562 351.5 176v-66c0-60.652-49.504-110-110.352-110h-40C140.383 0 91.5 49.172 91.5 110v66c0 41.492 19.977 80.527 52.898 104.82l-27.593 24.793C63.242 307.653.5 350.668.5 405.77V502c0 5.523 4.477 10 10 10h421.09c5.523 0 10-4.477 10-10zM198.895 446h44.246l10.484 46h-65.52zM244 426h-45.738l-7.672-23.902 30.46-15.23 31.114 15.562zm-22.953-69.18l-34.75-55.59a130.176 130.176 0 0 0 34.851 4.766c11.727 0 23.368-1.598 34.594-4.684zm14.312 14.844l48.012-76.824 25.895 23.265-32.95 74.043zM201.15 20h40c49.82 0 90.351 40.371 90.351 90v8.266l-18.777-27.04a10 10 0 0 0-15.364-1.288C277.031 110.727 253.496 120 221.051 120c-32.442 0-55.98-9.273-76.324-30.063a9.994 9.994 0 0 0-8.024-2.968 9.989 9.989 0 0 0-7.383 4.324l-17.82 26.113V110c0-49.629 40.215-90 89.648-90zM111.5 176v-23.113l27.773-40.7C161.523 131.113 187.816 140 221.051 140c33.27 0 59.582-8.906 81.836-27.871l28.613 41.203V176c0 59.887-48.95 110-110.352 110-61.203 0-109.648-49.957-109.648-110zm47.219 118.844l48.02 76.82-40.966 20.484-32.949-74.043zM20.5 405.77c0-41.196 50.078-76.766 93.84-80l37.414 84.066a10.002 10.002 0 0 0 13.609 4.878l7.125-3.566 8.114 25.266L167.562 492H20.5zM421.59 492H274.137l-12.633-55.434 8.7-25.117 6.523 3.266a10.003 10.003 0 0 0 13.609-4.88l37.414-84.065c43.762 3.238 93.84 38.804 93.84 80zm0 0"/><path d="M351.05 446h-40c-5.523 0-10 4.477-10 10s4.477 10 10 10h40c5.524 0 10-4.477 10-10s-4.476-10-10-10zm39.45 0c5.52 0 10 4.48 10 10s-4.48 10-10 10-10-4.48-10-10 4.48-10 10-10zm0 0"/></symbol><symbol viewBox="0 0 370.88 370.88" id="message" xmlns="http://www.w3.org/2000/svg"><path d="M355.6 66.16H15.28C6.841 66.16 0 73.001 0 81.44v208c0 8.439 6.841 15.28 15.28 15.28H355.6c8.439 0 15.28-6.841 15.28-15.28v-208c0-8.439-6.841-15.28-15.28-15.28zm-340.32 12H355.6a3.28 3.28 0 0 1 3.12 2.32L185.44 188.72 12.16 80.48a3.28 3.28 0 0 1 3.12-2.32zm-3.28 16L136.64 172 12 270.88V94.16zm346.88 195.2a3.28 3.28 0 0 1-3.28 3.28H15.28a3.28 3.28 0 0 1-3.28-3.28v-3.2l135.44-107.04 34.8 21.76a5.999 5.999 0 0 0 6.4 0l34.8-21.76 135.44 107.04v3.2zm0-18.48l-124.96-98.56 124.96-77.44v176z"/></symbol><symbol viewBox="0 0 378.391 486.393" id="pinterest" xmlns="http://www.w3.org/2000/svg"><path d="M376.149 135.248C362.865 39.125 267.076-9.818 164.873 1.642 84.07 10.702 3.512 76.03.168 169.447c-2.037 57.03 14.136 99.801 68.399 111.84 23.499-41.586-7.57-50.676-12.433-80.802C36.222 77.367 198.16-6.718 282.974 79.313c58.733 59.583 20.034 242.77-74.57 223.71-90.62-18.179 44.384-164.005-27.936-192.61-58.793-23.287-90.013 71.134-62.137 118.071-16.355 80.711-51.557 156.71-37.3 257.91 46.207-33.562 61.802-97.735 74.57-164.705 23.225 14.136 35.659 28.758 65.268 31.038 109.195 8.48 170.267-109.014 155.28-217.479z"/></symbol><symbol viewBox="0 0 446.25 446.25" id="search" xmlns="http://www.w3.org/2000/svg"><path d="M318.75 280.5h-20.4l-7.649-7.65c25.5-28.05 40.8-66.3 40.8-107.1C331.5 73.95 257.55 0 165.75 0 73.95 0 0 73.95 0 165.75S73.95 331.5 165.75 331.5c40.8 0 79.05-15.3 107.1-40.8l7.65 7.649v20.4L408 446.25 446.25 408zm-153 0C102 280.5 51 229.5 51 165.75S102 51 165.75 51 280.5 102 280.5 165.75s-51 114.75-114.75 114.75z"/></symbol><symbol viewBox="0 0 270.091 438.543" id="tumblr" xmlns="http://www.w3.org/2000/svg"><path d="M203.852 367.164c-12.748 0-23.887-2.95-33.4-8.85-7.427-4.381-12.368-10.089-14.842-17.132-2.673-6.852-4.001-23.223-4.001-49.115V179.58H255.53v-68.806H151.608V0h-62.53c-2.856 22.458-7.992 41.109-15.415 55.963-7.424 14.655-17.227 27.218-29.408 37.685C32.072 103.93 17.321 111.924 0 117.632v61.955h48.535v153.889c0 20.365 2.096 35.69 6.28 45.967 3.999 10.283 11.519 20.272 22.557 29.981 11.419 9.514 24.554 16.652 39.399 21.406 15.418 5.14 33.12 7.713 53.105 7.713 18.274 0 34.735-1.813 49.392-5.428 14.466-3.237 31.409-9.424 50.823-18.562V345.46c-21.892 14.473-43.968 21.704-66.239 21.704z"/></symbol><symbol viewBox="0 0 611.999 497.119" id="tw" xmlns="http://www.w3.org/2000/svg"><path d="M611.999 58.817a250.714 250.714 0 0 1-72.088 19.772c25.929-15.527 45.777-40.155 55.184-69.411-24.322 14.379-51.169 24.82-79.775 30.48C492.413 15.221 459.83 0 423.69 0c-69.334 0-125.551 56.217-125.551 125.513 0 9.828 1.109 19.427 3.251 28.606-104.326-5.24-196.835-55.223-258.75-131.174-10.823 18.51-16.98 40.078-16.98 63.101 0 43.559 22.181 81.993 55.835 104.479a125.556 125.556 0 0 1-56.867-15.756v1.568c0 60.806 43.291 111.554 100.693 123.104-10.517 2.83-21.607 4.398-33.08 4.398-8.107 0-15.947-.803-23.634-2.333 15.985 49.907 62.336 86.199 117.253 87.194-42.947 33.654-97.099 53.655-155.916 53.655-10.134 0-20.116-.612-29.944-1.721 55.567 35.681 121.536 56.485 192.438 56.485 230.948 0 357.188-191.291 357.188-357.188l-.421-16.253c24.666-17.593 46.005-39.697 62.794-64.861z"/></symbol><symbol viewBox="0 0 512 512" id="whatsapp" xmlns="http://www.w3.org/2000/svg"><path d="M256 0C115.39 0 0 115.39 0 256c0 46.406 12.512 91.582 36.238 131.105L0 512l124.895-36.238C164.418 499.488 209.594 512 256 512c140.61 0 256-115.39 256-256S396.61 0 256 0zm160.055 364.168l-11.91 11.91c-16.852 16.852-55.606 15.516-80.508 10.707-82.801-15.992-179.336-109.562-197.953-190.594-9.22-40.14-4.13-75.039 9.183-88.355l11.91-11.91c6.575-6.57 17.254-6.563 23.82 0l47.65 47.652c3.179 3.18 4.921 7.395 4.921 11.906 0 4.512-1.742 8.73-4.922 11.899l-11.906 11.922c-13.125 13.156-13.125 34.527 0 47.652l78.683 77.648c13.164 13.165 34.47 13.18 47.653 0l11.91-11.906c6.148-6.183 17.633-6.203 23.832 0l47.637 47.637c6.468 6.441 6.715 17.113 0 23.832zm0 0"/></symbol><symbol viewBox="0 0 310 218.166" id="youtube" xmlns="http://www.w3.org/2000/svg"><path d="M297.917 18.728C286.727 5.426 266.067 0 226.611 0H83.386C43.027 0 22.017 5.776 10.869 19.938 0 33.746 0 54.091 0 82.249v53.669c0 54.551 12.896 82.248 83.386 82.248h143.226c34.216 0 53.176-4.788 65.442-16.527C304.633 189.601 310 169.946 310 135.918V82.249c0-29.695-.841-50.16-12.083-63.521zm-98.896 97.765l-65.038 33.991a9.997 9.997 0 0 1-14.632-8.863V73.857a10 10 0 0 1 14.609-8.874l65.038 33.772a10 10 0 0 1 .023 17.738z"/></symbol></svg>